<svg xmlns="http://www.w3.org/2000/svg" viewBox="0 0 1600 900" preserveAspectRatio="xMidYMid slice"><defs><linearGradient id="g" x1="0" y1="0" x2="1" y2="1"><stop stop-color="#06110c"/><stop offset=".55" stop-color="#0b2017"/><stop offset="1" stop-color="#142d21"/></linearGradient><radialGradient id="r"><stop stop-color="#75d6a0" stop-opacity=".2"/><stop offset="1" stop-color="#75d6a0" stop-opacity="0"/></radialGradient><linearGradient id="m" x1="0" y1="0" x2="0" y2="1"><stop stop-color="#193e2c"/><stop offset="1" stop-color="#06110c"/></linearGradient></defs><rect width="1600" height="900" fill="url(#g)"/><circle cx="1260" cy="180" r="330" fill="url(#r)"/><path d="M0 560 Q250 380 520 540 T1050 470 T1600 390 V900 H0Z" fill="url(#m)"/><path d="M0 650 Q280 470 550 640 T1080 570 T1600 500" fill="none" stroke="#4fae7d" stroke-opacity=".24" stroke-width="5"/><path d="M0 720 Q300 540 600 700 T1150 630 T1600 570" fill="none" stroke="#d6a84f" stroke-opacity=".16" stroke-width="3"/><g fill="#62c58e" fill-opacity=".22"><circle cx="180" cy="590" r="28"/><circle cx="260" cy="550" r="20"/><circle cx="360" cy="610" r="31"/><circle cx="1080" cy="500" r="25"/><circle cx="1170" cy="455" r="19"/><circle cx="1320" cy="520" r="30"/></g><g fill="#f2d17b" fill-opacity=".3"><circle cx="1380" cy="140" r="2"/><circle cx="1460" cy="250" r="2"/><circle cx="1180" cy="110" r="2"/></g></svg>